<mxfile host="app.diagrams.net" modified="2023-05-16T23:15:20.120Z" agent="Mozilla/5.0 (Windows NT 10.0; Win64; x64) AppleWebKit/537.36 (KHTML, like Gecko) Chrome/113.0.0.0 Safari/537.36" etag="shTWGcPxdSESS0MDcW_u" version="21.3.2" type="github">
  <diagram id="prtHgNgQTEPvFCAcTncT" name="Page-1">
    <mxGraphModel dx="993" dy="591" grid="1" gridSize="10" guides="1" tooltips="1" connect="1" arrows="1" fold="1" page="1" pageScale="1" pageWidth="827" pageHeight="1169" math="0" shadow="0">
      <root>
        <mxCell id="0" />
        <mxCell id="1" parent="0" />
        <mxCell id="cg_-4Gn6XDbBgUi1bZ2A-2" value="Smartphone" style="rounded=0;whiteSpace=wrap;html=1;" vertex="1" parent="1">
          <mxGeometry x="150" y="90" width="120" height="30" as="geometry" />
        </mxCell>
        <mxCell id="cg_-4Gn6XDbBgUi1bZ2A-3" value="Profiler" style="rounded=0;whiteSpace=wrap;html=1;" vertex="1" parent="1">
          <mxGeometry x="140" y="530" width="120" height="60" as="geometry" />
        </mxCell>
        <mxCell id="cg_-4Gn6XDbBgUi1bZ2A-6" value="Accelerometer" style="rounded=0;whiteSpace=wrap;html=1;" vertex="1" parent="1">
          <mxGeometry x="315" y="160" width="120" height="20" as="geometry" />
        </mxCell>
        <mxCell id="cg_-4Gn6XDbBgUi1bZ2A-7" value="Gyroscope" style="rounded=0;whiteSpace=wrap;html=1;" vertex="1" parent="1">
          <mxGeometry x="315" y="200" width="120" height="20" as="geometry" />
        </mxCell>
        <mxCell id="cg_-4Gn6XDbBgUi1bZ2A-8" value="GPS" style="rounded=0;whiteSpace=wrap;html=1;" vertex="1" parent="1">
          <mxGeometry x="315" y="240" width="120" height="20" as="geometry" />
        </mxCell>
        <mxCell id="cg_-4Gn6XDbBgUi1bZ2A-11" value="Vehicle" style="rounded=0;whiteSpace=wrap;html=1;" vertex="1" parent="1">
          <mxGeometry x="490" y="90" width="120" height="30" as="geometry" />
        </mxCell>
        <mxCell id="cg_-4Gn6XDbBgUi1bZ2A-12" value="Vehicle body type" style="rounded=0;whiteSpace=wrap;html=1;" vertex="1" parent="1">
          <mxGeometry x="315" y="280" width="120" height="30" as="geometry" />
        </mxCell>
        <mxCell id="cg_-4Gn6XDbBgUi1bZ2A-13" value="Weight and dimension" style="rounded=0;whiteSpace=wrap;html=1;" vertex="1" parent="1">
          <mxGeometry x="315" y="330" width="130" height="30" as="geometry" />
        </mxCell>
        <mxCell id="cg_-4Gn6XDbBgUi1bZ2A-14" value="Suspension parameters" style="rounded=0;whiteSpace=wrap;html=1;" vertex="1" parent="1">
          <mxGeometry x="315" y="380" width="130" height="30" as="geometry" />
        </mxCell>
        <mxCell id="cg_-4Gn6XDbBgUi1bZ2A-15" value="Mounting" style="rounded=0;whiteSpace=wrap;html=1;" vertex="1" parent="1">
          <mxGeometry x="320" y="90" width="120" height="30" as="geometry" />
        </mxCell>
        <mxCell id="cg_-4Gn6XDbBgUi1bZ2A-16" value="Mounting type" style="rounded=0;whiteSpace=wrap;html=1;" vertex="1" parent="1">
          <mxGeometry x="315" y="440" width="120" height="30" as="geometry" />
        </mxCell>
      </root>
    </mxGraphModel>
  </diagram>
</mxfile>
